<?xml version="1.0" encoding="UTF-8" standalone="no"?>
<!-- Created with Inkscape (http://www.inkscape.org/) -->

<svg
   width="146mm"
   height="1990mm"
   viewBox="0 0 146 1990"
   version="1.1"
   id="svg1"
   xml:space="preserve"
   inkscape:version="1.3.2 (1:1.3.2+202311252150+091e20ef0f)"
   sodipodi:docname="moai.svg"
   inkscape:export-filename="../../../../../home/non-work/Documents/code/bevy-flappy-pebble/assets/moai.png"
   inkscape:export-xdpi="96"
   inkscape:export-ydpi="96"
   xmlns:inkscape="http://www.inkscape.org/namespaces/inkscape"
   xmlns:sodipodi="http://sodipodi.sourceforge.net/DTD/sodipodi-0.dtd"
   xmlns:xlink="http://www.w3.org/1999/xlink"
   xmlns="http://www.w3.org/2000/svg"
   xmlns:svg="http://www.w3.org/2000/svg"><sodipodi:namedview
     id="namedview1"
     pagecolor="#ffffff"
     bordercolor="#000000"
     borderopacity="0.25"
     inkscape:showpageshadow="2"
     inkscape:pageopacity="0.0"
     inkscape:pagecheckerboard="0"
     inkscape:deskcolor="#d1d1d1"
     inkscape:document-units="mm"
     inkscape:zoom="0.31874366"
     inkscape:cx="-246.27941"
     inkscape:cy="2582.0121"
     inkscape:window-width="2105"
     inkscape:window-height="1962"
     inkscape:window-x="2070"
     inkscape:window-y="27"
     inkscape:window-maximized="0"
     inkscape:current-layer="layer2" /><defs
     id="defs1"><linearGradient
       id="linearGradient25"
       inkscape:collect="always"><stop
         style="stop-color:#664d7f;stop-opacity:1;"
         offset="0.23235855"
         id="stop24" /><stop
         style="stop-color:#bf0dbf;stop-opacity:0.94117647;"
         offset="0.70916826"
         id="stop26" /><stop
         style="stop-color:#f7e4f8;stop-opacity:0.40483806;"
         offset="0.95257133"
         id="stop25" /></linearGradient><linearGradient
       inkscape:collect="always"
       xlink:href="#linearGradient25"
       id="linearGradient23"
       x1="47.150429"
       y1="47.538734"
       x2="48.021477"
       y2="88.374947"
       gradientUnits="userSpaceOnUse" /><linearGradient
       inkscape:collect="always"
       xlink:href="#linearGradient25"
       id="linearGradient26"
       gradientUnits="userSpaceOnUse"
       x1="47.150429"
       y1="47.538734"
       x2="48.021477"
       y2="88.374947" /></defs><g
     inkscape:label="Layer 1"
     inkscape:groupmode="layer"
     id="layer1"><g
       inkscape:groupmode="layer"
       id="layer2"
       inkscape:label="body"><path
         style="fill:#aea7ca;fill-opacity:1;stroke:#000000;stroke-width:2.635;stroke-dasharray:none;stroke-opacity:0.997608"
         d="m 143.44112,1741.9519 c 2.47295,9.7395 9.13386,220.0308 1.02976,236.0632 -8.10409,16.0324 -128.534621,18.4358 -136.997871,1.2367 -8.46324996,-17.199 -4.43643,-227.0326 -0.61948,-237.23 17.06837,-45.6001 124.539291,-47.5215 136.587591,-0.07 z"
         id="path2-5-2-7-6-6-9-3"
         sodipodi:nodetypes="szzss"
         inkscape:label="segment 7" /><path
         style="fill:#aea7ca;fill-opacity:1;stroke:#000000;stroke-width:2.635;stroke-dasharray:none;stroke-opacity:0.997608"
         d="m 142.42546,1495.8046 c 2.47295,9.7395 9.13386,220.0308 1.02976,236.0632 -8.10409,16.0324 -128.534622,18.4358 -136.9978718,1.2367 -8.46325,-17.199 -4.43643,-227.0326 -0.61948,-237.23 17.0683698,-45.6001 124.5392918,-47.5215 136.5875918,-0.07 z"
         id="path2-5-2-7-6-6-9"
         sodipodi:nodetypes="szzss"
         inkscape:label="segment 6" /><path
         style="fill:#aea7ca;fill-opacity:1;stroke:#000000;stroke-width:2.635;stroke-dasharray:none;stroke-opacity:0.997608"
         d="m 144.01463,1252.6123 c 2.47295,9.7395 9.13386,220.0308 1.02976,236.0632 -8.10409,16.0324 -128.534618,18.4358 -136.9978676,1.2367 -8.46325004,-17.199 -4.43643,-227.0326 -0.61948,-237.23 17.0683696,-45.6001 124.5392876,-47.5215 136.5875876,-0.07 z"
         id="path2-5-2-7-6-6"
         sodipodi:nodetypes="szzss"
         inkscape:label="segment 5" /><path
         style="fill:#aea7ca;fill-opacity:1;stroke:#000000;stroke-width:2.635;stroke-dasharray:none;stroke-opacity:0.997608"
         d="m 143.57634,1011.099 c 2.47295,9.7395 9.13386,220.0308 1.02976,236.0632 -8.10409,16.0324 -128.534618,18.4358 -136.9978682,1.2367 -8.46325002,-17.199 -4.43643,-227.0326 -0.61948,-237.23 17.0683702,-45.60003 124.5392882,-47.52151 136.5875882,-0.07 z"
         id="path2-5-2-7-6"
         sodipodi:nodetypes="szzss"
         inkscape:label="segment 4" /><path
         style="fill:#aea7ca;fill-opacity:1;stroke:#000000;stroke-width:2.635;stroke-dasharray:none;stroke-opacity:0.997608"
         d="m 143.52503,762.07083 c 2.47295,9.73956 9.13386,220.03083 1.02976,236.0632 -8.10409,16.03237 -128.534623,18.43577 -136.9978727,1.23671 -8.46324997,-17.199 -4.43643,-227.0326 -0.61948,-237.22998 17.0683697,-45.60002 124.5392927,-47.5215 136.5875927,-0.0699 z"
         id="path2-5-2-7"
         sodipodi:nodetypes="szzss"
         inkscape:label="segment 3" /><path
         style="fill:#aea7ca;fill-opacity:1;stroke:#000000;stroke-width:2.635;stroke-dasharray:none;stroke-opacity:0.997608"
         d="m 141.82715,516.43338 c 2.47295,9.73956 9.13386,220.03083 1.02976,236.0632 -8.10409,16.03237 -128.534619,18.43572 -136.9978733,1.23671 -8.463244,-17.199 -4.436424,-227.0326 -0.619473,-237.22998 17.0683693,-45.60002 124.5392863,-47.5215 136.5875863,-0.0699 z"
         id="path2-5-2"
         sodipodi:nodetypes="szzss"
         inkscape:label="segment 2" /><path
         style="fill:#aea7ca;fill-opacity:1;stroke:#000000;stroke-width:2.635;stroke-dasharray:none;stroke-opacity:0.997608"
         d="m 141.90718,272.9061 c 2.47295,9.73956 9.13386,220.03083 1.02976,236.0632 -8.10409,16.03237 -128.534618,18.43572 -136.9978718,1.23671 -8.463244,-17.199 -4.436424,-227.0326 -0.619473,-237.22998 17.0683688,-45.60002 124.5392848,-47.5215 136.5875848,-0.0699 z"
         id="path2-5"
         sodipodi:nodetypes="szzss"
         inkscape:label="segment 1" /></g><path
       style="fill:#aea7ca;fill-opacity:1;stroke:#000000;stroke-width:2.635;stroke-dasharray:none;stroke-opacity:0.997608"
       d="m 141.83398,36.314457 c 2.47295,9.739562 9.13386,220.030833 1.02976,236.063203 C 134.75965,288.41003 14.329118,290.81338 5.8658643,273.61437 -2.5973797,256.41537 1.4294403,46.58177 5.2463913,36.384385 22.31476,-9.2156268 129.78568,-11.137104 141.83398,36.314457 Z"
       id="path2"
       sodipodi:nodetypes="szzss"
       inkscape:label="head" /><path
       style="fill:#6426ae;fill-opacity:1;stroke:#000000;stroke-width:0.264999;stroke-opacity:0.997608"
       d="m 14.783377,194.19919 119.197133,-1.30925 c 0,0 -59.865207,102.00448 -119.197133,1.30925 z"
       id="path4"
       sodipodi:nodetypes="ccc"
       inkscape:label="mouth" /><path
       style="fill:#6426ae;fill-opacity:1;stroke:#000000;stroke-width:0.264999;stroke-opacity:0.997608"
       d="M 24.916857,35.534037 C 60.172306,5.9851196 84.783713,5.1975993 120.70758,35.822267 156.63145,66.446934 82.327323,27.718313 82.411603,42.19821 c 0.0843,14.479897 -4.97717,69.22781 18.956077,89.79217 23.93325,20.56436 -74.212274,22.82231 -53.547948,1.27804 20.66433,-21.54428 15.41683,-74.97175 14.86114,-89.787503 -0.55569,-14.815754 -73.019464,21.602036 -37.764015,-7.94688 z"
       id="path3"
       sodipodi:nodetypes="zzzzzzz"
       inkscape:label="nose" /><path
       sodipodi:type="star"
       style="fill:url(#linearGradient23);fill-opacity:1;stroke:#000000;stroke-width:0.264999;stroke-opacity:0.997608"
       id="path5"
       inkscape:flatsided="true"
       sodipodi:sides="4"
       sodipodi:cx="49.287476"
       sodipodi:cy="59.710964"
       sodipodi:r1="28.486032"
       sodipodi:r2="20.142668"
       sodipodi:arg1="1.616536"
       sodipodi:arg2="2.4019342"
       inkscape:rounded="0"
       inkscape:randomized="0"
       d="M 47.984988,88.167204 20.831236,58.408477 50.589963,31.254725 77.743715,61.013452 Z"
       transform="matrix(0.50680691,0,0,0.78279519,14.780779,26.316332)"
       inkscape:label="left eye" /><path
       sodipodi:type="star"
       style="fill:url(#linearGradient26);fill-opacity:1;stroke:#000000;stroke-width:0.264999;stroke-opacity:0.997608"
       id="path5-9"
       inkscape:flatsided="true"
       sodipodi:sides="4"
       sodipodi:cx="49.287476"
       sodipodi:cy="59.710964"
       sodipodi:r1="28.486032"
       sodipodi:r2="20.142668"
       sodipodi:arg1="1.616536"
       sodipodi:arg2="2.4019342"
       inkscape:rounded="0"
       inkscape:randomized="0"
       d="M 47.984988,88.167204 20.831236,58.408477 50.589963,31.254725 77.743715,61.013452 Z"
       transform="matrix(0.50680691,0,0,0.78279519,80.622633,25.353263)"
       inkscape:label="left eye" /></g></svg>
